<svg width="234" height="76" viewBox="0 0 234 76" fill="none" xmlns="http://www.w3.org/2000/svg">
<path fill-rule="evenodd" clip-rule="evenodd" d="M107 25.0023V40H108.848H110.697V25.0023V10.0045H108.848H107V25.0023ZM126.409 10.1295L126.456 10.2545L131.384 25.1272L136.313 40H138.671H141.03L145.957 25.1307L150.885 10.2615L150.935 10.1307L150.985 10L149.104 10.0273L147.224 10.0545L143.023 23.1692L138.822 36.284L138.765 36.3414L138.707 36.3989L134.419 23.2031L130.13 10.0073L128.246 10.0059L126.362 10.0045L126.409 10.1295ZM166.648 11.7042V13.404H175.84H185.032V11.7042V10.0045H175.84H166.648V11.7042ZM203.906 19.548L208.711 29.0955V34.5478V40H210.56H212.408V34.6006V29.2012L217.204 19.6029L222 10.0045H219.958H217.916L214.768 16.2286L211.62 22.4526L211.078 23.4865L210.536 24.5203L206.895 17.2874L203.254 10.0545L201.177 10.0274L199.101 10.0004L203.906 19.548ZM166.648 31.5013V40H176.04H185.432V38.3003V36.6005H177.888H170.345V31.4513V26.3021H177.139H183.933V24.6523V23.0026H175.29H166.648V31.5013Z" fill="black"/>
<path fill-rule="evenodd" clip-rule="evenodd" d="M39.7358 0.0410336L39.5741 0.0722851L39.5177 0.131443L39.4612 0.190558L37.7374 3.25655L36.0135 6.32259L35.8958 6.6155L35.7781 6.90837L35.6255 6.60817L35.4729 6.30798L33.5044 3.43843L31.536 0.568837L31.4479 0.489141L31.3598 0.409446L30.9059 0.418931L30.452 0.428417L30.4426 0.437691L30.4334 0.447007L32.893 3.99774L35.3527 7.54847L35.4644 10.0944L35.5762 12.6404L36.0351 12.6524L36.4941 12.6645L36.4677 12.2501L36.4413 11.8358L36.3583 9.91707L36.2752 7.99836V7.73475V7.47119L38.3936 3.75527L40.5119 0.0393397V0.0196485V0L40.2047 0.00486973L39.8976 0.00973978L39.7358 0.0410336ZM48.1606 1.40361L48.1403 1.46095L46.2916 7.42368L44.4429 13.3865L44.4597 13.4034L44.4767 13.4202L45.232 13.6549L45.9872 13.8896L46.0351 13.8888L46.0831 13.888L47.9405 7.89228L49.798 1.89652L49.7623 1.86281L49.7266 1.82915L49.0063 1.60734L48.2861 1.38553L48.2335 1.36592L48.1809 1.34627L48.1606 1.40361ZM20.3666 4.17526L17.1892 5.8398L17.075 5.90633L16.9608 5.9729L17.1345 6.30002L17.3082 6.62719L17.3401 6.66352L17.3721 6.6999L17.7571 6.49414L18.1422 6.28842L18.1255 6.24357L18.1089 6.19869L21.0066 4.68235L23.9042 3.16598V3.14874V3.13151L23.757 2.83927L23.6098 2.54708L23.577 2.52888L23.5441 2.51071L20.3666 4.17526ZM57.5952 5.2807L57.5111 5.52619L55.4088 11.6953L53.3065 17.8644L53.3089 17.899L53.3112 17.9336L53.8785 18.4206L54.4458 18.9076L54.4799 18.8965L54.514 18.8854L59.4708 16.3793L64.4277 13.8732L65.5213 13.3157L66.615 12.7583L66.0797 12.297L65.5445 11.8358L65.4521 11.7843L65.3598 11.7329L65.1793 11.7314L64.9988 11.7299L60.5242 14.0375L56.0496 16.345L55.6922 16.5888L55.3347 16.8326L55.2528 16.8907L55.1708 16.9487L55.4027 16.4555L55.6346 15.9623L57.2683 11.2605L58.902 6.5588L58.9262 6.43799L58.9503 6.31717L58.9017 6.16985L58.8531 6.02248L58.2999 5.54143L57.7468 5.06038L57.7131 5.0478L57.6794 5.03518L57.5952 5.2807ZM24.3057 8.64795L23.3323 9.15657L21.5529 10.1045L19.7735 11.0524L19.7183 11.0881L19.6631 11.1237L21.1912 14.0388L22.7193 16.9539L22.7379 16.9725L22.7565 16.9911L25.8194 15.3906L28.8823 13.7901L29.1222 13.6583L29.362 13.5266L29.1849 13.2042L29.0077 12.8818L26.9114 13.9804L24.8151 15.0789L24.0043 15.5008L23.1936 15.9227L22.0602 13.7522L20.9267 11.5817L20.8481 11.4499L20.7694 11.318L23.1841 10.0553L25.5989 8.79265V8.76064V8.72862L25.439 8.43398L25.279 8.13933L24.3057 8.64795ZM10.5423 11.1188L10.3046 11.4441V11.5574V11.6708L13.3363 16.6019L16.368 21.5331L16.535 21.7312L16.7019 21.9294V21.951V21.9727L16.3948 21.8677L16.0876 21.7627L10.58 20.4061L5.07236 19.0495L4.9384 19.0444L4.80448 19.0393L4.73623 19.0958L4.66797 19.1524L4.45597 19.4438L4.24397 19.7351L4.29803 19.7543L4.35213 19.7734L10.7918 21.3423L17.2315 22.9112L17.2813 22.9289L17.331 22.9465L17.5672 22.6328L17.8035 22.3191V22.2967V22.2743L14.303 16.5469L10.8025 10.8195L10.7912 10.8065L10.78 10.7935L10.5423 11.1188ZM70.5108 19.292L69.9 19.5641L69.8885 19.5755L69.877 19.587L70.2121 20.345L70.5471 21.103L70.5911 21.1302L70.6352 21.1575L71.827 23.9072L73.0187 26.657L73.0256 26.6663L73.0326 26.6756L73.6235 26.4193L74.2144 26.1631L74.2514 26.1275L74.2883 26.0918L72.7943 22.6479L71.3002 19.204L71.2571 19.1087L71.2139 19.0135L71.1677 19.0167L71.1216 19.02L70.5108 19.292ZM62.839 22.6197L59.6403 24.0088L59.651 24.0521L59.6617 24.0955L61.1705 27.5782L62.6795 31.061L62.7121 31.0964L62.7447 31.1319L63.3638 30.8652L63.9829 30.5986L63.9807 30.5757L63.9785 30.5528L62.7812 27.8003L61.584 25.0478L61.6713 25.0001L61.7586 24.9524L63.6382 24.1389L65.5177 23.3255L65.5483 23.3609L65.5788 23.3963L66.5025 25.5348L67.4262 27.6733L67.4625 27.7441L67.4987 27.8149L68.0922 27.5586L68.6855 27.3024V27.2621V27.2219L67.3893 24.2716L66.0932 21.3213L66.0654 21.276L66.0376 21.2306L62.839 22.6197ZM1.73516 27.1316L1.71656 27.1651L1.61653 27.5547L1.51646 27.9443L1.5365 27.9644L1.55654 27.9844L7.52483 29.6195L13.4931 31.2546L13.5194 31.2285L13.5456 31.2024L13.6573 30.8003L13.7689 30.3982L13.7208 30.3804L13.6727 30.3627L7.78381 28.7514L1.89488 27.1401L1.8243 27.1191L1.75372 27.0982L1.73516 27.1316ZM71.0888 36.0522L67.3278 38.3942L64.8216 38.4229L62.3153 38.4516L62.3123 38.4616L62.3094 38.4716L62.3225 39.3092L62.3356 40.1469L64.8433 40.1185L67.351 40.0901L71.164 42.3587L74.977 44.6273L74.9885 43.8476L75 43.0679L74.94 42.9244L74.88 42.7809L74.7378 42.6743L74.5957 42.5677L72.1172 41.1496L69.6388 39.7315L69.3422 39.5842L69.0457 39.4368L68.8338 39.3601L68.622 39.2833L68.5897 39.2559L68.5573 39.2284L68.8862 39.0871L69.2151 38.9457L69.4481 38.8167L69.6812 38.6878L72.1384 37.2102L74.5957 35.7326L74.7308 35.5916L74.8659 35.4506L74.8946 35.298L74.9232 35.1454L74.8865 34.4278L74.8499 33.7102L71.0888 36.0522ZM0.0299531 35.8748L0.0599062 36.3119L0.114305 36.3966L0.168703 36.4813L3.32623 38.1199L6.4838 39.7586L6.76312 39.856L7.0424 39.9534L7.04223 39.9747L7.0421 39.996L6.77744 40.1343L6.51282 40.2725L3.71664 42.3272L0.920453 44.382L0.825128 44.4886L0.729804 44.5953L0.733532 44.8576L0.737218 45.1199L0.765307 45.3223L0.793354 45.5246L4.2674 42.9478L7.74145 40.371L10.1351 40.1926L12.5289 40.0144L12.6908 39.9904L12.8528 39.9664L12.8232 39.5366L12.7936 39.1068L12.7813 39.0927L12.769 39.0786L10.2129 39.2776L7.65671 39.4765L4.05557 37.5832L0.454422 35.69L0.227211 35.5638L0 35.4377L0.0299531 35.8748ZM13.5774 47.1334L13.2703 47.3036V47.3188V47.334L14.8841 50.1789L16.498 53.0238L16.4834 53.0347L16.4689 53.0456L14.2755 54.2856L12.0821 55.5257L12.0118 55.5314L11.9415 55.5371L10.6619 53.2817L9.3823 51.0263L9.32197 50.9355L9.2616 50.8447L8.97855 51.0029L8.69545 51.1611L8.67635 51.192L8.65728 51.2229L9.27973 52.3109L9.90213 53.3989L10.8502 55.0503L11.7982 56.7016L11.8246 56.7L11.851 56.6984L14.7055 55.0792L17.56 53.46L17.5652 53.4336L17.5705 53.4072L15.7487 50.1866L13.9269 46.9659L13.9058 46.9645L13.8846 46.9631L13.5774 47.1334ZM65.3598 47.5634L65.2327 47.6076L65.0898 47.74L64.947 47.8724L64.8683 48.0418L64.7897 48.2112V48.4018V48.5923L64.8668 48.7621L64.944 48.9318L65.0978 49.0668L65.2515 49.2017L65.4116 49.2461L65.5716 49.2906L65.7017 49.2908L65.8318 49.291L66.0615 49.1746L66.2913 49.0581L66.414 48.8811L66.5367 48.7042L66.5569 48.4944L66.5771 48.2846L66.5253 48.1278L66.4735 47.971L66.3407 47.8198L66.2078 47.6686L66.038 47.5915L65.8682 47.5144L65.6775 47.5168L65.4869 47.5192L65.3598 47.5634ZM58.1072 53.3026L57.2254 54.3129L56.4416 55.2139L55.6579 56.1149L55.4125 56.4579L55.1671 56.8009L54.9687 57.1641L54.7702 57.5274L54.6272 57.9072L54.4841 58.2869L54.382 58.7329L54.2798 59.1789L54.2537 59.7082L54.2277 60.2375L54.2991 60.7245L54.3706 61.2115L54.5171 61.6511L54.6636 62.0906L54.8417 62.4556L55.0198 62.8207L55.2617 63.1826L55.5035 63.5446L55.8262 63.9135L56.1489 64.2825L56.5389 64.624L56.9289 64.9655L57.369 65.2612L57.8093 65.5569L58.0909 65.6987L58.3725 65.8404L58.6463 65.9527L58.9201 66.0651L59.4073 66.1951L59.8945 66.3251L60.6359 66.3456L61.3773 66.3661L61.7586 66.2952L62.1399 66.2243L62.57 66.0813L63.0001 65.9383L63.3349 65.77L63.6697 65.6018L64.0527 65.3457L64.4357 65.0896L64.8409 64.7063L65.2461 64.3231L66.8705 62.4571L68.4949 60.5911L68.5027 60.5625L68.5106 60.534L63.7842 56.4264L59.0578 52.3188L59.0234 52.3056L58.989 52.2924L58.1072 53.3026ZM3.37771 52.9118L3.12351 53.0587L3.08949 53.0706L3.05542 53.0826L4.879 56.2975L6.70258 59.5125L6.73482 59.5447L6.76702 59.5769L7.11146 59.3779L7.45585 59.1789L7.25457 58.8276L7.05329 58.4763L6.98216 58.4243L6.91102 58.3723L5.32703 55.5785L3.74303 52.7846L3.68749 52.7747L3.6319 52.7649L3.37771 52.9118ZM62.646 57.7103L66.3117 60.8998L66.3306 60.9303L66.3494 60.9609L65.2592 62.2083L64.1689 63.4559L63.917 63.6858L63.6651 63.9157L63.2838 64.1631L62.9025 64.4105L62.5841 64.5333L62.2657 64.6561L61.91 64.7281L61.5544 64.8002L60.9787 64.7788L60.4029 64.7574L60.0216 64.6444L59.6403 64.5314L59.1743 64.3057L58.7083 64.0799L58.3831 63.8526L58.058 63.6252L57.7104 63.3288L57.3629 63.0324L57.0994 62.7314L56.8359 62.4305L56.6432 62.1598L56.4506 61.889L56.2967 61.6082L56.1428 61.3274L56.0198 60.9904L55.8967 60.6534L55.8303 60.3031L55.7638 59.9529L55.7653 59.6294L55.7668 59.3059L55.8241 58.9883L55.8814 58.6707L55.9738 58.3955L56.0661 58.1202L56.2161 57.8141L56.3661 57.5081L56.5509 57.2425L56.7358 56.9769L57.8067 55.7393L58.8777 54.5017L58.929 54.5112L58.9802 54.5208L62.646 57.7103ZM18.5641 62.6774L12.9525 66.365L12.94 66.3768L12.9274 66.3887L13.1942 66.578L13.4609 66.7673L13.5592 66.8191L13.6576 66.8709L13.7726 66.8308L13.8876 66.7908L18.6099 63.6713L23.3323 60.5518L23.6183 60.3204L23.9042 60.0889V60.1037V60.1184L23.8201 60.3628L23.736 60.6073L22.5491 66.2238L21.3622 71.8404L21.3623 71.9707V72.1009L21.4576 72.1869L21.5529 72.2729L21.8149 72.4481L22.077 72.6232L22.0986 72.5494L22.1201 72.4756L23.4782 65.9831L24.8363 59.4906V59.4572V59.4238L24.6139 59.2768L24.3915 59.1299L24.2836 59.0599L24.1757 58.9899L18.5641 62.6774ZM44.1342 62.2779L43.414 62.4691L43.4045 62.478L43.395 62.4868L42.547 69.0903L41.699 75.6939L41.6747 75.847L41.6503 76L42.3946 75.8005L43.1388 75.601L43.2204 75.5272L43.302 75.4533L43.3672 75.3161L43.4324 75.1788L44.0269 70.2579L44.6214 65.3369V64.7577V64.1785L44.9294 64.6853L45.2374 65.1921L48.1526 69.1091L51.0678 73.0261L51.2106 73.1624L51.3535 73.2987L51.4721 73.3289L51.5907 73.359L52.2262 73.197L52.8617 73.035L52.9721 72.9882L53.0826 72.9414L48.9897 67.5129L44.8968 62.0844L44.8756 62.0855L44.8544 62.0866L44.1342 62.2779ZM33.6297 63.1028L33.6108 63.1594L32.6757 69.1938L31.7407 75.2281L31.7413 75.2962L31.742 75.3643L32.1754 75.4312L32.6089 75.498L32.6138 75.4901L32.6188 75.4822L33.5599 69.4055L34.5011 63.3288L34.521 63.2593L34.541 63.1898L34.2748 63.1459L34.0086 63.102L33.8287 63.0741L33.6487 63.0462L33.6297 63.1028Z" fill="black"/>
<path d="M107.88 54.3H108.815V62H107.88V54.3ZM110.19 62H108.397V61.065H110.19C110.623 61.065 111.019 60.999 111.378 60.867C111.737 60.7277 112.045 60.5333 112.302 60.284C112.559 60.0273 112.757 59.7193 112.896 59.36C113.035 59.0007 113.105 58.5973 113.105 58.15C113.105 57.7027 113.035 57.2993 112.896 56.94C112.757 56.5807 112.559 56.2763 112.302 56.027C112.045 55.7703 111.737 55.576 111.378 55.444C111.019 55.3047 110.623 55.235 110.19 55.235H108.397V54.3H110.19C110.938 54.3 111.602 54.4613 112.181 54.784C112.76 55.1067 113.215 55.5577 113.545 56.137C113.875 56.709 114.04 57.38 114.04 58.15C114.04 58.92 113.875 59.5947 113.545 60.174C113.215 60.746 112.76 61.1933 112.181 61.516C111.602 61.8387 110.938 62 110.19 62ZM118.624 62V61.12H122.507V62H118.624ZM118.624 55.18V54.3H122.507V55.18H118.624ZM118.624 58.26V57.38H122.287V58.26H118.624ZM118.107 54.3H119.042V62H118.107V54.3ZM129.654 60.262L132.184 54.3H133.229L129.654 62.385L126.079 54.3H127.124L129.654 60.262ZM137.433 62V61.12H141.316V62H137.433ZM137.433 55.18V54.3H141.316V55.18H137.433ZM137.433 58.26V57.38H141.096V58.26H137.433ZM136.916 54.3H137.851V62H136.916V54.3ZM145.714 54.3H146.649V61.12H149.674V62H145.714V54.3ZM153.633 58.15C153.633 58.7293 153.758 59.2463 154.007 59.701C154.264 60.1557 154.612 60.515 155.052 60.779C155.492 61.043 155.991 61.175 156.548 61.175C157.113 61.175 157.611 61.043 158.044 60.779C158.484 60.515 158.829 60.1557 159.078 59.701C159.335 59.2463 159.463 58.7293 159.463 58.15C159.463 57.5707 159.335 57.0537 159.078 56.599C158.829 56.1443 158.484 55.785 158.044 55.521C157.611 55.257 157.113 55.125 156.548 55.125C155.991 55.125 155.492 55.257 155.052 55.521C154.612 55.785 154.264 56.1443 154.007 56.599C153.758 57.0537 153.633 57.5707 153.633 58.15ZM152.643 58.15C152.643 57.5853 152.738 57.0647 152.929 56.588C153.127 56.104 153.402 55.686 153.754 55.334C154.106 54.9747 154.52 54.696 154.997 54.498C155.474 54.2927 155.991 54.19 156.548 54.19C157.113 54.19 157.63 54.2927 158.099 54.498C158.576 54.696 158.99 54.9747 159.342 55.334C159.694 55.686 159.965 56.104 160.156 56.588C160.354 57.0647 160.453 57.5853 160.453 58.15C160.453 58.7073 160.354 59.228 160.156 59.712C159.965 60.196 159.694 60.6177 159.342 60.977C158.99 61.329 158.576 61.6077 158.099 61.813C157.63 62.011 157.113 62.11 156.548 62.11C155.991 62.11 155.474 62.011 154.997 61.813C154.52 61.6077 154.106 61.329 153.754 60.977C153.402 60.6177 153.127 60.196 152.929 59.712C152.738 59.228 152.643 58.7073 152.643 58.15ZM164.524 54.3H165.459V62H164.524V54.3ZM165.041 55.18V54.3H166.614C167.112 54.3 167.556 54.3953 167.945 54.586C168.341 54.7693 168.652 55.0333 168.88 55.378C169.114 55.7227 169.232 56.1333 169.232 56.61C169.232 57.0793 169.114 57.49 168.88 57.842C168.652 58.1867 168.341 58.4543 167.945 58.645C167.556 58.8283 167.112 58.92 166.614 58.92H165.041V58.04H166.614C167.112 58.04 167.516 57.919 167.824 57.677C168.139 57.435 168.297 57.0793 168.297 56.61C168.297 56.1333 168.139 55.7777 167.824 55.543C167.516 55.301 167.112 55.18 166.614 55.18H165.041ZM174.367 56.797L173.795 62H172.86L173.795 53.915L176.875 59.492L179.955 53.915L180.89 62H179.955L179.383 56.797L176.875 61.285L174.367 56.797ZM185.472 62V61.12H189.355V62H185.472ZM185.472 55.18V54.3H189.355V55.18H185.472ZM185.472 58.26V57.38H189.135V58.26H185.472ZM184.955 54.3H185.89V62H184.955V54.3ZM199.583 54.3H200.518V62.385L194.688 56.269V62H193.753V53.915L199.583 60.031V54.3ZM204.262 55.18V54.3H209.157V55.18H207.177V62H206.242V55.18H204.262ZM213.182 59.668C213.358 59.976 213.541 60.2473 213.732 60.482C213.93 60.7167 214.15 60.9 214.392 61.032C214.634 61.164 214.909 61.23 215.217 61.23C215.627 61.23 215.957 61.1163 216.207 60.889C216.456 60.6617 216.581 60.372 216.581 60.02C216.581 59.6753 216.5 59.4003 216.339 59.195C216.177 58.9897 215.965 58.8247 215.701 58.7C215.444 58.568 215.169 58.4507 214.876 58.348C214.685 58.282 214.472 58.1977 214.238 58.095C214.003 57.985 213.779 57.8493 213.567 57.688C213.354 57.5193 213.178 57.314 213.039 57.072C212.907 56.83 212.841 56.533 212.841 56.181C212.841 55.7997 212.936 55.4587 213.127 55.158C213.317 54.8573 213.581 54.6227 213.919 54.454C214.256 54.278 214.641 54.19 215.074 54.19C215.492 54.19 215.855 54.2707 216.163 54.432C216.478 54.586 216.746 54.7877 216.966 55.037C217.186 55.279 217.358 55.5357 217.483 55.807L216.68 56.269C216.584 56.0783 216.463 55.8913 216.317 55.708C216.17 55.5247 215.99 55.3743 215.778 55.257C215.572 55.1397 215.319 55.081 215.019 55.081C214.601 55.081 214.296 55.1837 214.106 55.389C213.915 55.587 213.82 55.8107 213.82 56.06C213.82 56.2727 213.875 56.4707 213.985 56.654C214.095 56.83 214.278 56.9987 214.535 57.16C214.799 57.314 215.154 57.468 215.602 57.622C215.807 57.6953 216.023 57.7907 216.251 57.908C216.478 58.0253 216.687 58.1757 216.878 58.359C217.076 58.535 217.237 58.7513 217.362 59.008C217.486 59.2573 217.549 59.558 217.549 59.91C217.549 60.2473 217.483 60.5517 217.351 60.823C217.226 61.0943 217.05 61.3253 216.823 61.516C216.603 61.7067 216.35 61.8533 216.064 61.956C215.785 62.0587 215.492 62.11 215.184 62.11C214.766 62.11 214.377 62.022 214.018 61.846C213.666 61.6627 213.354 61.4243 213.083 61.131C212.819 60.8303 212.602 60.5113 212.434 60.174L213.182 59.668Z" fill="black"/>
</svg>
