<svg width="225" height="11" viewBox="0 0 225 11" fill="none" xmlns="http://www.w3.org/2000/svg">
<path fill-rule="evenodd" clip-rule="evenodd" d="M0 5.21476V10.3975L0.547082 10.3345L1.09416 10.2717L1.14728 5.15193L1.2004 0.0322093H0.600199H0V5.21476ZM7.55968 0.123072V0.24018L9.3372 4.95768L11.1147 9.67519L11.2484 10.0231L11.3821 10.3711H11.8297H12.2773L12.9014 8.73077L13.5255 7.09047L14.8198 3.71762L16.1141 0.344761V0.175363V0.00576577L15.5763 0.0687926L15.0384 0.131621L13.5255 4.07292L12.0123 8.01441L11.8267 8.0494L11.6413 8.08459L10.1228 4.10811L8.60411 0.131621L8.0819 0.0687926L7.55968 0.00576577V0.123072ZM20.9252 0.578976L20.9881 1.12574L25.5139 1.17923L30.0398 1.23271V0.63246V0.0322093H25.4511H20.8621L20.9252 0.578976ZM36.0346 3.05195L37.8436 6.09635L38.0198 6.28523L38.1963 6.47412V8.42259V10.3711H38.7931H39.3899L39.3901 8.43254L39.3903 6.494L41.28 3.3484L43.1698 0.202801V0.117505V0.0322093L42.6227 0.0328054L42.0756 0.0332036L40.5054 2.61752L38.9353 5.20164L38.7149 5.19389L38.4947 5.18633L36.9965 2.65888L35.4983 0.131621L34.8621 0.0695882L34.2259 0.00755497L36.0346 3.05195ZM55.155 5.08612L55.1716 10.1722H59.1961H63.2206L64.4851 9.78136L65.7493 9.39047L66.4828 8.67729L67.2165 7.9641L67.5523 6.95328L67.8883 5.94246L67.7903 4.72108L67.6922 3.4999L67.2859 2.71057L66.8799 1.92104L66.3147 1.38481L65.7493 0.848582L64.9536 0.494476L64.1578 0.140369L59.6483 0.0701851L55.1385 0L55.155 5.08612ZM73.0106 5.10223V10.1722H78.382H83.7533V9.47636V8.78048H79.2772H74.8011V7.18988V5.59929H77.4867H80.1724V4.9034V4.20752H77.4867H74.8011V2.81575V1.42398H79.1777H83.5544V0.728094V0.0322093H78.2825H73.0106V5.10223ZM86.3254 0.7778L86.7171 1.52339L89.2826 5.79811L91.8481 10.0728L92.6276 10.1317L93.4068 10.1905L95.6783 6.1552L97.9498 2.11986L98.5257 1.07604L99.1015 0.0322093H98.2235H97.3456L95.0942 4.11447L92.8428 8.19653L92.6457 8.13092L92.4485 8.06531L90.1488 4.04866L87.8493 0.0322093H86.8914H85.9335L86.3254 0.7778ZM102.454 5.10223V10.1722H107.825H113.196V9.47636V8.78048H108.712H104.227L104.285 7.23959L104.344 5.6987L106.979 5.64323L109.615 5.58776V4.9034V4.21905L106.979 4.16358L104.344 4.10811L104.285 2.76604L104.226 1.42398H108.711H113.196V0.728094V0.0322093H107.825H102.454V5.10223ZM117.175 5.10223V10.1722H122.347H127.52V9.48034V8.78843L123.292 8.73475L119.065 8.68107L119.011 4.35664L118.958 0.0322093H118.066H117.175V5.10223ZM131.162 0.511575L130.603 0.991139L130.539 4.63718L130.474 8.28342L130.686 8.9962L130.898 9.70919L131.407 9.94062L131.915 10.1722H137.067H142.219L142.777 9.69229L143.336 9.21232V5.10203V0.991735L142.777 0.511972L142.219 0.0322093H136.969H131.72L131.162 0.511575ZM148.408 5.10223V10.1722H149.297H150.185L150.242 8.23371L150.298 6.29517L154.496 6.19576L158.693 6.09635L159.018 5.82635L159.343 5.55634L159.544 4.83222L159.746 4.10811V3.11399V2.11986L159.54 1.38004L159.335 0.640412L158.9 0.336211L158.466 0.0322093H153.437H148.408V5.10223ZM163.727 5.10223V10.1722L164.473 10.1724L165.219 10.1726L165.173 6.04684L165.127 1.92104L165.471 2.37297L165.816 2.8247L168.089 5.70327L170.363 8.58165H170.6H170.837L172.716 6.14606L174.595 3.71046L175.129 2.91874L175.663 2.12702L175.671 2.32227L175.679 2.51751L175.664 6.34488L175.648 10.1722H176.551H177.454V5.09129V0.0103385L176.512 0.07098L175.57 0.131621L173.248 3.30645L170.926 6.48147L170.722 6.54947L170.517 6.61767L168.979 4.667L167.44 2.71634L166.356 1.37427L165.273 0.0322093H164.5H163.727V5.10223ZM182.825 5.10223V10.1722H188.196H193.568V9.47636V8.78048H189.092H184.615V7.18988V5.59929H187.301H189.987V4.9034V4.20752H187.301H184.615V2.81575V1.42398H188.992H193.369V0.728094V0.0322093H188.097H182.825V5.10223ZM197.546 5.10223V10.1722H198.342H199.138V6.0703V1.96836L200.282 3.07243L201.426 4.1767L204.907 7.16443L208.389 10.1522L209.135 10.1623L209.881 10.1722V5.10223V0.0322093H208.977H208.074L208.132 4.00889L208.19 7.98558L208.075 7.98538L207.961 7.98518L207.478 7.46307L206.996 6.94076L202.988 3.48658L198.979 0.0322093H198.263H197.546V5.10223ZM213.064 0.728094V1.42398H215.55H218.037V5.79811V10.1722H218.928H219.82L219.873 5.84782L219.927 1.52339L222.464 1.46772L225 1.41205V0.72213V0.0322093H219.032H213.064V0.728094ZM63.6056 1.7244L64.6178 2.02483L65.213 2.70242L65.8084 3.38001L65.9483 4.20752L66.0881 5.03483L65.9564 5.91264L65.8247 6.79025L65.3157 7.39487L64.8068 7.9995L64.1839 8.3367L63.561 8.67391L60.2976 8.67749L57.034 8.68107L57.0481 5.49988L57.0623 2.31869L57.0788 1.87133L57.0955 1.42398H59.8444H62.5936L63.6056 1.7244ZM141.545 5.10223V8.68107L136.92 8.73435L132.294 8.78784V5.10223V1.41662L136.92 1.47011L141.545 1.52339V5.10223ZM157.52 1.66257L157.759 1.90116V3.14679V4.39243L157.374 4.59821L156.989 4.80399H153.594H150.199V3.11399V1.42398H153.74H157.281L157.52 1.66257ZM21.0213 4.53896L20.8886 4.67138V5.23484V5.79811H24.1578H27.4267L27.5441 5.4285L27.6615 5.05888L27.5363 4.73261L27.411 4.40634H24.2825H21.1538L21.0213 4.53896ZM20.8886 9.7746V10.3711H25.4642H30.0398V9.7746V9.17813H25.4642H20.8886V9.7746Z" fill="black"/>
</svg>
